HIERARCHY
ROOT Hips
{
	OFFSET	0.00	0.00	0.00
	CHANNELS 6 Xposition Yposition Zposition Zrotation Xrotation Yrotation
	JOINT Spine
	{
		OFFSET	 0.00	0.01	 0.00
		CHANNELS 3 Zrotation Xrotation Yrotation
		JOINT Spine1
		{
			OFFSET	 0.00	 2.45913012437421	 0.00
			CHANNELS 3 Zrotation Xrotation Yrotation
            JOINT Neck
            {
                OFFSET	 0.00	 2.48462964506057	 0.00
                CHANNELS 3 Zrotation Xrotation Yrotation
                JOINT Head
                {
                    OFFSET	 0.00	 0.927524780924562	 0.00
                    CHANNELS 3 Zrotation Xrotation Yrotation
                    End Site 
                    {
                        OFFSET	 0.00	 1.14999962169752	 0.00
                    }
                }
            }
			JOINT LeftShoulder
			{
				OFFSET	 0.00	 2.48462964506057	 0.00
				CHANNELS 3 Zrotation Xrotation Yrotation
				JOINT LeftUpArm
				{
					OFFSET	 0.00	 1.24881979654096	 0.00
					CHANNELS 3 Zrotation Xrotation Yrotation
					JOINT LeftForeArm
					{
						OFFSET	 0.00	2.59758046908119	 0.00
						CHANNELS 3 Zrotation Xrotation Yrotation
						JOINT LeftHand
						{
							OFFSET	 0.00	2.45542024364365	 0.00
							CHANNELS 3 Zrotation Xrotation Yrotation
							JOINT LeftHandThumb 
							{
								OFFSET	 0.00	0.00	 0.00
								CHANNELS 3 Zrotation Xrotation Yrotation
								End Site
								{
									OFFSET	 0.00	0.00	1.00000003353624
								}
							}
							JOINT L_Wrist_End 
							{
								OFFSET	 0.00	0.99999967115358	 0.00
								CHANNELS 3 Zrotation Xrotation Yrotation
								End Site 
								{
									OFFSET	 0.00	 0.00	 0.00
								}
							}
						}
					}
				}
			}
			JOINT RightShoulder
			{
				OFFSET	 0.00	 2.48462964506057	 0.00
				CHANNELS 3 Zrotation Xrotation Yrotation
				JOINT RightUpArm
				{
					OFFSET	 0.00	 1.24881979654096	 0.00
					CHANNELS 3 Zrotation Xrotation Yrotation
					JOINT RightForeArm
					{
						OFFSET	 0.00	2.59758046908119	 0.00
						CHANNELS 3 Zrotation Xrotation Yrotation
						JOINT RightHand
						{
							OFFSET	 0.00	2.45542024364365	 0.00
							CHANNELS 3 Zrotation Xrotation Yrotation
							JOINT RightHandThumb 
							{
								OFFSET	 0.00	0.00	 0.00
								CHANNELS 3 Zrotation Xrotation Yrotation
								End Site
								{
									OFFSET	 0.00	0.00	1.00000003353624
								}
							}
							JOINT R_Wrist_End 
							{
								OFFSET	 0.00	0.99999967115358	 0.00
								CHANNELS 3 Zrotation Xrotation Yrotation
								End Site 
								{
									OFFSET	 0.00	 0.00	 0.00
								}
							}
						}
					}
				}
			}
		}
	}
	JOINT LeftUpLeg
	{
		OFFSET	 1.2719394002717	 0.00	 0.00
		CHANNELS 3 Zrotation Xrotation Yrotation
		JOINT LeftLowLeg
		{
			OFFSET	 0.00	-4.3429100912261	 0.00
			CHANNELS 3 Zrotation Xrotation Yrotation
			JOINT LeftFoot
			{
				OFFSET	 0.00	-4.48767017425826	 0.00
				CHANNELS 3 Zrotation Xrotation Yrotation
				JOINT LeftToeBase
                {
                    OFFSET	 0.00	0.00	 1.51507020887566
                    CHANNELS 3 Zrotation Xrotation Yrotation
                    End Site 
                    {
                        OFFSET	 0.00	0.00	 0.75000010571191
                    }
                }
			}
		}
	}
	JOINT RightUpLeg
	{
		OFFSET	 -1.2719393604653	 0.00	 0.00
		CHANNELS 3 Zrotation Xrotation Yrotation
		JOINT RightLowLeg
		{
			OFFSET	 0.00	-4.3429100912261	 0.00
			CHANNELS 3 Zrotation Xrotation Yrotation
			JOINT RightFoot
			{
				OFFSET	 0.00	-4.48767017425826	 0.00
				CHANNELS 3 Zrotation Xrotation Yrotation
				JOINT RightToeBase
                {
                    OFFSET	 0.00	0.00	 1.51507020887566
                    CHANNELS 3 Zrotation Xrotation Yrotation
                    End Site 
                    {
                        OFFSET	 0.00	0.00	 0.749999965609858
                    }
                }   
			}
		}
	}
}
MOTION 
Frames:	20 
Frame Time: 0.02 
 0.07241889953613281 4.330260009765625 9.35572998046875 -158.933 79.5634 157.701 3.22763 -7.68589 -1.35763 1.59975 -12.3747 -1.21321 22.1091 74.628 -30.0923 48.3441 -84.0045 30.6349 -114.089005 -11.9556 -9.07414 10.0867 7.96091 -26.3193 0.0 11.8815 0.0 25.5693 -9.71342 16.4632 0.0 0.0 0.0 0.0 0.0 0.0 110.4188 -5.83535 3.55204 -11.7359 1.31952 45.7502 0.0 14.1653 0.0 -21.1256 -5.71984 -46.6498 0.0 0.0 0.0 0.0 0.0 0.0 3.19326 -7.20954 3.52506 0.0 6.64126 0.0 -14.3912 0.17959976 8.9744 0.0 -28.388401 0.0 7.40047 -6.39464 3.87315 0.0 7.93377 0.0 11.3995 5.2991304 -19.7938 0.0 -29.9705 0.0 
  0.07151790142059326 4.335190124511719 9.35552978515625 -158.842 79.6798 157.466 3.27526 -7.63041 -1.20694 1.53922 -12.2489 -1.06411 17.4607 75.2804 -24.4719 47.056 -83.9345 29.9397 -113.9245 -11.8531 -9.08802 9.70187 8.30932 -26.5551 0.0 12.4247 0.0 25.8093 -9.89641 16.0066 0.0 0.0 0.0 0.0 0.0 0.0 110.4043 -5.60174 3.17968 -11.1792 1.25361 46.6095 0.0 14.1095 0.0 -20.9332 -5.50334 -45.6201 0.0 0.0 0.0 0.0 0.0 0.0 3.18868 -7.07895 3.70417 0.0 6.60127 0.0 -14.3887 0.20820045 8.9408 0.0 -28.404 0.0 7.3916 -6.32215 3.97928 0.0 7.9511 0.0 11.3934 5.30824 -19.7722 0.0 -30.0071 0.0 
  0.07285540103912354 4.350639953613281 9.355280151367188 -158.603 79.7395 157.385 3.37306 -7.41562 -1.15741 1.45887 -12.3549 -1.02744 12.2405 75.7537 -18.332 44.9159 -83.9107 28.1201 -113.7729 -11.5535 -8.92057 9.25471 8.49707 -26.9521 0.0 13.128 0.0 25.9077 -9.95284 15.6896 0.0 0.0 0.0 0.0 0.0 0.0 110.2959 -5.41744 2.7576 -10.5226 1.29567 46.9896 0.0 14.2487 0.0 -21.1827 -5.78813 -44.2627 0.0 0.0 0.0 0.0 0.0 0.0 3.17803 -7.23395 3.46267 0.0 6.7913 0.0 -14.3683 0.1782999 9.03361 0.0 -28.397701 0.0 7.38308 -6.38094 3.77615 0.0 8.00935 0.0 11.3924 5.3157396 -19.7308 0.0 -30.0654 0.0 
  0.07168159961700439 4.358500061035156 9.354390258789062 -158.429 79.7969 157.169 3.37334 -7.31412 -1.04763 1.54055 -12.3725 -0.913288 7.73467 75.9532 -13.0946 43.1166 -83.8807 26.7167 -113.6384 -11.321 -8.58663 8.77137 8.7028 -27.4256 0.0 13.9393 0.0 26.0577 -9.91859 15.1696 0.0 0.0 0.0 0.0 0.0 0.0 110.2763 -5.10609 2.29558 -10.0347 1.30893 47.1433 0.0 14.3347 0.0 -21.3047 -5.64568 -43.6275 0.0 0.0 0.0 0.0 0.0 0.0 3.20352 -7.21609 3.60087 0.0 6.79845 0.0 -14.3902 0.18900013 8.93291 0.0 -28.5035 0.0 7.40231 -6.35874 3.82945 0.0 7.99957 0.0 11.3896 5.3156996 -19.7387 0.0 -30.1092 0.0 
  0.07121109962463379 4.368210144042969 9.353770141601563 -158.348 79.829 157.031 3.36995 -7.25041 -0.915808 1.63684 -12.3585 -0.77609 3.7349 76.0 -8.46762 41.6075 -83.8648 25.5324 -113.5198 -11.0007 -8.28475 8.27139 8.88098 -27.3671 0.0 14.8151 0.0 26.1785 -9.74017 14.4083 0.0 0.0 0.0 0.0 0.0 0.0 110.192 -4.89733 2.0289 -9.41278 1.46421 46.8162 0.0 14.6461 0.0 -21.2005 -5.59202 -42.9218 0.0 0.0 0.0 0.0 0.0 0.0 3.21413 -7.23737 3.66655 0.0 6.80647 0.0 -14.3829 0.18389988 8.93753 0.0 -28.4842 0.0 7.41056 -6.3858 3.88885 0.0 8.00529 0.0 11.3963 5.32837 -19.7243 0.0 -30.116901 0.0 
  0.07095839977264404 4.3797900390625 9.35301025390625 -158.091 79.8651 156.815 3.30731 -7.06802 -0.835979 1.8817 -12.5177 -0.683036 -0.0665792 75.9577 -4.13347 39.5304 -83.8967 23.661 -113.4262 -10.6208 -7.90047 7.75096 8.98624 -26.9239 0.0 15.7347 0.0 26.1518 -9.51169 13.743 0.0 0.0 0.0 0.0 0.0 0.0 109.9897 -4.73744 1.59492 -8.68336 1.74677 46.766 0.0 15.0611 0.0 -21.0032 -5.37115 -41.9227 0.0 0.0 0.0 0.0 0.0 0.0 3.24111 -7.28032 3.63614 0.0 6.83637 0.0 -14.388 0.17580032 8.92444 0.0 -28.5308 0.0 7.43406 -6.40488 3.86864 0.0 7.99138 0.0 11.4028 5.3640404 -19.7395 0.0 -30.2967 0.0 
  0.07059070110321045 4.389079895019531 9.352420043945312 -157.891 79.901 156.633 3.2403 -7.01722 -0.747936 2.09798 -12.4922 -0.583785 -3.19233 75.805 -0.550847 38.2569 -83.9492 22.5641 -113.381 -10.231 -7.47522 7.32391 9.15576 -26.344 0.0 16.7189 0.0 26.0371 -9.35494 12.9821 0.0 0.0 0.0 0.0 0.0 0.0 109.8944 -4.58 0.970962 -8.08891 2.1014 46.9276 0.0 15.4615 0.0 -20.4266 -5.16083 -40.444 0.0 0.0 0.0 0.0 0.0 0.0 3.26098 -7.27449 3.61044 0.0 6.79663 0.0 -14.3834 0.19330025 8.93264 0.0 -28.562801 0.0 7.44119 -6.42051 3.69152 0.0 8.00667 0.0 11.3836 5.3894997 -19.578 0.0 -30.2575 0.0 
  0.07050360202789306 4.397760009765625 9.351610107421875 -157.854 79.918 156.602 3.16417 -7.00442 -0.666028 2.30226 -12.4676 -0.489164 -5.86685 75.5832 2.51192 36.949 -84.008 21.3701 -113.2946 -9.86655 -7.0458 6.88669 9.39288 -25.5482 0.0 17.7279 0.0 25.8651 -9.15198 12.0777 0.0 0.0 0.0 0.0 0.0 0.0 109.779495 -4.32956 0.25393 -7.46542 2.41147 46.8541 0.0 15.9657 0.0 -19.8695 -5.13736 -38.7909 0.0 0.0 0.0 0.0 0.0 0.0 3.25485 -7.26063 3.51301 0.0 6.69719 0.0 -14.3925 0.21119976 9.01762 0.0 -28.6 0.0 7.44386 -6.44236 3.7778 0.0 7.98871 0.0 11.4173 5.3628597 -19.634 0.0 -30.258099 0.0 
  0.06826389789581298 4.405400085449219 9.351279907226562 -157.504 80.1234 156.207 2.98815 -6.83498 -0.567439 2.61414 -12.3976 -0.362798 -8.07326 75.337 5.03278 35.7311 -84.0923 20.1591 -113.2698 -9.46743 -6.47099 6.50821 9.69303 -25.0437 0.0 18.6982 0.0 25.6448 -8.7064 11.4351 0.0 0.0 0.0 0.0 0.0 0.0 109.645004 -4.01971 -0.511864 -6.8718 2.73244 46.702 0.0 16.4605 0.0 -19.2722 -4.97812 -37.227 0.0 0.0 0.0 0.0 0.0 0.0 3.26209 -7.07242 3.77391 0.0 6.66677 0.0 -14.4044 0.30039978 8.80591 0.0 -28.6646 0.0 7.43823 -6.2749 3.85025 0.0 7.9868 0.0 11.4001 5.3552103 -19.6702 0.0 -30.291 0.0 
  0.06938960075378418 4.418150024414063 9.349959716796874 -157.611 79.938 156.556 2.97388 -6.95174 -0.585997 2.75308 -12.4385 -0.382106 -9.72559 74.9937 6.95528 34.4502 -84.1073 18.8494 -113.1764 -9.0527 -5.89823 6.09684 9.99722 -24.3908 0.0 19.8341 0.0 25.4687 -8.45075 10.5036 0.0 0.0 0.0 0.0 0.0 0.0 109.5022 -3.65586 -1.21358 -6.20912 3.11236 46.7879 0.0 17.0111 0.0 -18.5319 -4.59334 -35.8699 0.0 0.0 0.0 0.0 0.0 0.0 3.28515 -7.43296 3.53174 0.0 6.77479 0.0 -14.3817 0.26830006 8.82319 0.0 -28.700901 0.0 7.46473 -6.51945 3.71931 0.0 7.97296 0.0 11.4346 5.3298798 -19.7111 0.0 -30.3557 0.0 
  0.06867440223693848 4.426789855957031 9.349320068359376 -157.386 79.9866 156.37 2.86125 -6.94996 -0.551237 3.01466 -12.3591 -0.334176 -11.0198 74.731 8.43469 33.3507 -84.1757 17.7574 -113.157104 -8.70795 -5.45602 5.70067 10.4343 -23.6745 0.0 21.0008 0.0 25.4187 -8.23785 9.63993 0.0 0.0 0.0 0.0 0.0 0.0 109.4139 -3.41921 -2.13025 -5.71288 3.73252 46.4207 0.0 17.5785 0.0 -17.9092 -4.27377 -34.0234 0.0 0.0 0.0 0.0 0.0 0.0 3.30777 -7.43113 3.5867 0.0 6.7693 0.0 -14.3804 0.2954998 8.73566 0.0 -28.7261 0.0 7.48271 -6.51936 3.6969 0.0 7.9857 0.0 11.4195 5.33272 -19.7207 0.0 -30.3908 0.0 
  0.06790740013122559 4.434429931640625 9.349039916992188 -157.008 80.14 156.017 2.74628 -6.92594 -0.495293 3.24537 -12.1265 -0.268234 -12.1697 74.4275 9.77798 32.8776 -84.295 17.1628 -113.1474 -8.31719 -5.07775 5.29395 10.9046 -22.8204 0.0 22.287 0.0 25.4781 -7.98774 8.85323 0.0 0.0 0.0 0.0 0.0 0.0 109.4034 -3.12797 -2.86019 -5.24914 4.31816 45.6856 0.0 18.2705 0.0 -17.7264 -4.0013 -32.1967 0.0 0.0 0.0 0.0 0.0 0.0 3.30778 -7.31425 3.60925 0.0 6.75982 0.0 -14.3862 0.33100033 8.70498 0.0 -28.8018 0.0 7.4848 -6.40532 3.72925 0.0 7.99363 0.0 11.4456 5.3236704 -19.7732 0.0 -30.4558 0.0 
  0.06820169925689697 4.445400085449219 9.348670043945312 -156.758 80.1693 155.912 2.66523 -6.93085 -0.511045 3.44385 -12.0185 -0.279211 -12.9519 74.1228 10.7032 32.0921 -84.3497 16.2422 -113.1873 -7.94408 -4.43599 5.01117 11.3431 -22.116 0.0 23.7185 0.0 25.521 -7.68055 8.25507 0.0 0.0 0.0 0.0 0.0 0.0 109.3764 -2.88891 -3.77135 -4.79642 5.02799 44.9756 0.0 19.022 0.0 -17.4879 -3.54002 -30.2697 0.0 0.0 0.0 0.0 0.0 0.0 3.31872 -7.42298 3.4955 0.0 6.86422 0.0 -14.3732 0.33689976 8.69035 0.0 -28.8382 0.0 7.49626 -6.44685 3.64252 0.0 8.03065 0.0 11.4571 5.3106403 -19.8045 0.0 -30.4515 0.0 
  0.06790800094604492 4.4552099609375 9.348560180664062 -156.185 80.3895 155.421 2.51091 -6.80722 -0.487781 3.72835 -11.8075 -0.242417 -13.6215 73.8648 11.462 31.2487 -84.4579 15.2352 -113.2999 -7.52902 -3.82577 4.75571 11.763 -21.1308 0.0 25.3012 0.0 25.6314 -7.30935 7.53971 0.0 0.0 0.0 0.0 0.0 0.0 109.4003 -2.61912 -4.76943 -4.36454 5.64425 44.2309 0.0 20.0148 0.0 -17.2877 -3.07038 -28.1572 0.0 0.0 0.0 0.0 0.0 0.0 3.31361 -7.29333 3.48267 0.0 6.92365 0.0 -14.3685 0.38360023 8.63147 0.0 -28.8746 0.0 7.48994 -6.29448 3.60778 0.0 8.07952 0.0 11.4813 5.2945805 -19.8486 0.0 -30.528 0.0 
  0.06861310005187989 4.466719970703125 9.347999877929688 -155.749 80.4654 155.188 2.45401 -6.74734 -0.489857 3.86402 -11.7086 -0.24204 -13.8665 73.6331 11.7671 30.7859 -84.4983 14.5857 -113.3909 -7.1443 -3.32619 4.4536 12.2955 -19.8936 0.0 26.9896 0.0 25.9158 -6.85088 6.90845 0.0 0.0 0.0 0.0 0.0 0.0 109.4207 -2.40816 -5.42291 -3.75288 6.32459 42.9156 0.0 21.0802 0.0 -17.5093 -2.44751 -26.0066 0.0 0.0 0.0 0.0 0.0 0.0 3.32549 -7.37103 3.36314 0.0 7.04584 0.0 -14.3564 0.39929962 8.56344 0.0 -28.8947 0.0 7.49714 -6.29362 3.4313 0.0 8.13256 0.0 11.505 5.27789 -19.8433 0.0 -30.5555 0.0 
  0.06809840202331544 4.476650085449219 9.347349853515626 -155.158 80.625 154.735 2.331 -6.6826 -0.460779 4.09404 -11.4831 -0.205534 -14.141 73.4218 12.0715 30.1175 -84.5829 13.7335 -113.5034 -6.83428 -3.04309 3.89982 12.9857 -18.6452 0.0 28.7581 0.0 26.2752 -6.29106 6.15858 0.0 0.0 0.0 0.0 0.0 0.0 109.6211 -1.90646 -5.69707 -3.20513 6.55247 40.8075 0.0 22.4543 0.0 -17.812 -2.03408 -23.2401 0.0 0.0 0.0 0.0 0.0 0.0 3.33764 -7.31979 3.30053 0.0 7.13168 0.0 -14.3485 0.4147997 8.49531 0.0 -28.945 0.0 7.50763 -6.20407 3.31609 0.0 8.19862 0.0 11.5217 5.24671 -19.8598 0.0 -30.574501 0.0 
  0.06819849967956543 4.487550048828125 9.347360229492187 -154.441 80.8253 154.186 2.24611 -6.59761 -0.447189 4.26535 -11.2137 -0.193401 -14.5746 73.3144 12.5298 29.7061 -84.7398 13.0767 -113.6744 -6.50088 -2.85594 3.1443 13.6438 -17.1928 0.0 30.6957 0.0 27.1443 -6.0454 4.99068 0.0 0.0 0.0 0.0 0.0 0.0 109.8122 -1.5807 -6.52935 -2.55407 6.99555 38.9187 0.0 23.9422 0.0 -18.6977 -1.63527 -19.9542 0.0 0.0 0.0 0.0 0.0 0.0 3.34355 -7.23681 3.21671 0.0 7.22045 0.0 -14.3394 0.4680004 8.41778 0.0 -29.0098 0.0 7.50587 -6.08246 3.15582 0.0 8.27363 0.0 11.5393 5.23567 -19.8602 0.0 -30.6151 0.0 
  0.06829060077667236 4.497550048828125 9.34697021484375 -153.951 80.9519 153.815 2.14964 -6.60184 -0.386072 4.447 -10.9407 -0.130362 -14.7335 73.2253 12.6712 29.1556 -84.8438 12.2797 -113.9198 -6.06017 -2.21918 2.39088 14.1542 -16.2221 0.0 32.6354 0.0 27.7052 -5.40989 3.49154 0.0 0.0 0.0 0.0 0.0 0.0 110.1031 -1.276 -7.66716 -1.94845 7.30138 36.7979 0.0 25.5788 0.0 -19.7244 -1.16523 -16.4202 0.0 0.0 0.0 0.0 0.0 0.0 3.35074 -7.20898 3.21591 0.0 7.28119 0.0 -14.3364 0.5085001 8.31497 0.0 -29.021801 0.0 7.5106 -6.04496 3.08382 0.0 8.36519 0.0 11.5603 5.20465 -19.8928 0.0 -30.6358 0.0 
  0.06800580024719238 4.507919921875 9.34635986328125 -153.339 81.1071 153.328 1.96453 -6.52026 -0.363618 4.80668 -10.6998 -0.0958191 -15.0843 73.0833 12.9855 27.6293 -84.9756 10.5633 -114.2698 -5.73787 -1.4343 1.43768 14.6643 -15.4428 0.0 34.754 0.0 28.1469 -5.1413 1.87657 0.0 0.0 0.0 0.0 0.0 0.0 110.3651 -0.927849 -8.80644 -1.20704 7.5793 34.6813 0.0 27.4099 0.0 -20.767 -0.730482 -13.4988 0.0 0.0 0.0 0.0 0.0 0.0 3.35694 -7.14614 3.09925 0.0 7.33524 0.0 -14.3408 0.526 8.3052 0.0 -29.028801 0.0 7.51199 -5.97149 2.89273 0.0 8.44436 0.0 11.5563 5.19388 -19.8321 0.0 -30.671501 0.0 
  0.06779220104217529 4.517250061035156 9.34572021484375 -152.782 81.244 152.898 1.80421 -6.48968 -0.311307 5.11024 -10.408 -0.0368329 -15.2616 72.9387 13.1123 26.466 -85.1209 9.19396 -114.6556 -5.36995 -0.715152 0.218369 15.1325 -14.4642 0.0 36.8638 0.0 28.6802 -4.72916 0.179481 0.0 0.0 0.0 0.0 0.0 0.0 110.7358 -0.694421 -10.0488 -0.302752 7.88972 33.0421 0.0 29.3774 0.0 -21.2957 -0.0836852 -10.2484 0.0 0.0 0.0 0.0 0.0 0.0 3.37095 -7.10842 3.16471 0.0 7.41112 0.0 -14.3332 0.5738001 8.12964 0.0 -29.085 0.0 7.51261 -5.91594 2.76894 0.0 8.53387 0.0 11.578 5.16354 -19.8162 0.0 -30.7178 0.0 
